<svg width="93" height="22" viewBox="0 0 93 22" fill="none" xmlns="http://www.w3.org/2000/svg">
<path d="M31.3872 5.81843C32.203 5.41507 33.3654 5.41114 34.205 5.38283V5.4072C35.1379 5.37497 36.0384 5.37339 36.9745 5.37339C38.7153 5.37339 46.481 5.38833 48.2195 5.59748C48.6032 5.64309 49.101 5.7343 49.3929 5.99062C49.4829 6.07203 49.5553 6.17074 49.6058 6.28076L55.436 21.6776H65.5708L69.8153 6.04723L74.1263 21.6776H84.1954L92.5269 0.356953H85.6102L79.8204 16.3081H78.5978L73.7085 0.356953H65.8272L60.9695 16.3081H59.7826L55.4479 4.30956C54.3994 1.24859 51.8634 0.311349 49.7506 0.203629C45.6098 -0.00787945 40.7869 0.0377246 38.8395 0.0377246C37.6526 0.0377246 35.9735 0.0243579 34.2073 0.064458V0.0400834C32.4412 0.0786109 30.5848 0.175323 29.0363 0.393121C30.698 1.74866 31.1727 3.78512 31.3895 5.81843H31.3872Z" fill="#3D3D3D"/>
<path d="M34.2073 16.6221C33.594 16.6062 32.982 16.5581 32.3739 16.4782C31.8772 16.4247 31.4019 16.249 30.9907 15.9671C30.0886 15.3074 30.0174 13.2152 30.0206 11.8533C30.0206 10.3421 30.0142 8.78686 29.8971 7.27249C29.7681 5.32253 29.6075 2.79701 27.8706 1.51852C25.9723 0.112663 22.5943 0.112663 20.3431 0.0796392C18.6379 0.0481882 16.9651 0.0167372 15.2607 0.0167372C12.2047 0.0167372 8.73015 -0.111426 5.70584 0.368202C4.61228 0.525458 3.55116 0.847831 2.64988 1.51852C0.945447 2.8316 0.752373 5.32253 0.623393 7.27249C0.526855 8.51952 0.526855 9.76577 0.526855 11.0128C0.526855 12.2598 0.526855 13.5053 0.623393 14.7523C0.71993 16.7023 0.913004 19.2593 2.64988 20.5055C4.54898 21.9122 7.95785 21.9122 10.2099 21.9444C11.8826 21.9766 13.5871 21.9766 15.2607 21.9766C18.2945 21.9766 21.4485 22.0655 24.4633 21.6723C23.316 20.8027 22.5429 19.5549 22.2082 17.8762C22.085 17.2502 21.9973 16.6178 21.9455 15.9821C20.8931 16.4137 19.3777 16.4145 18.3847 16.4145C17.356 16.4145 16.2933 16.446 15.2646 16.446C13.7841 16.446 9.28089 16.6378 8.05834 15.6794C6.96478 14.8144 7.09297 12.7701 7.09297 11.5561C7.09297 6.60258 6.99643 5.58042 12.2087 5.58042H16.3234C17.8347 5.58042 19.3793 5.54897 20.8915 5.73768C22.0175 5.89494 22.7573 6.18586 23.111 7.33618C23.4117 8.28836 23.456 9.84204 23.4632 10.9931V11.1402C23.4632 13.2498 23.3666 15.4875 23.7852 17.5648C24.2355 19.8348 25.6503 20.9529 27.8706 21.4325C29.928 21.8611 32.0771 21.953 34.2073 21.9719V21.9955C34.94 22.0018 35.6704 21.9955 36.3944 21.9955H39.1639C41.7055 21.9955 47.3989 22.1229 49.3937 20.3333C50.8734 19.0226 50.9051 16.8493 50.9051 15.0267C50.9051 14.5157 50.8734 13.9723 50.841 13.4605H44.3081C44.3081 14.0683 44.2764 14.8994 44.0509 15.4749C43.5041 16.8493 41.1872 16.6543 39.9979 16.6543H36.684C35.8769 16.6543 35.0366 16.6661 34.2073 16.6394V16.6158V16.6221Z" fill="#3D3D3D"/>
</svg>
